<svg width="38" height="28" viewBox="0 0 38 28" fill="none" xmlns="http://www.w3.org/2000/svg">
<path d="M32.1476 27.9995C33.1043 27.9995 34.0626 27.9995 35.0185 27.9995C36.7478 27.9895 37.9909 26.757 37.9967 25.0297C38.0017 23.0309 38.0017 21.0321 37.9967 19.0333C37.9967 18.4828 37.6162 18.0588 37.1033 18.0047C36.8572 17.9808 36.6109 18.0483 36.4112 18.1944C36.2116 18.3405 36.0727 18.5548 36.0209 18.7967C36.0009 18.92 35.9934 19.045 35.9985 19.1698C35.9985 21.0948 35.9985 23.02 35.9985 24.9455C35.9985 25.6643 35.6654 25.9974 34.9535 25.9982C32.9877 25.9982 31.0219 25.9982 29.0553 25.9982C28.2976 25.9982 27.8064 26.6912 28.0745 27.3649C28.2302 27.7597 28.5882 27.9937 29.0586 27.9954C30.0869 28.002 31.1177 27.9995 32.1476 27.9995Z" fill="white"/>
<path d="M5.86696 0.00222111C4.89914 0.00222111 3.93216 0.00222111 2.96434 0.00222111C1.25607 0.00971794 0.00840076 1.25163 0.0042363 2.95915C-0.000761057 4.93655 -0.000761057 6.91394 0.0042363 8.89134C0.0042363 9.55186 0.420683 10.0033 1.00954 9.99998C1.59839 9.99665 2.00234 9.54186 2.00234 8.87801C2.00234 6.94226 2.00234 5.00624 2.00234 3.06993C2.00234 2.32945 2.32801 2.00211 3.06345 2.00211C5.02019 2.00211 6.97638 2.00211 8.93201 2.00211C9.6941 2.00211 10.1897 1.3241 9.93148 0.650249C9.78239 0.252105 9.42092 0.00222111 8.95783 0.00222111C7.92754 -0.00277615 6.89725 0.00222111 5.86696 0.00222111Z" fill="white"/>
<path d="M5.85309 27.9981H8.87938C9.54542 27.9981 9.99749 27.5919 9.99999 27.0041C10.0025 26.4163 9.54875 26 8.89021 26C6.95538 26 5.02083 26 3.08655 26C2.3281 26 2.00425 25.6795 2.00425 24.9177C2.00425 22.9621 2.00425 21.0048 2.00425 19.0508C2.00425 18.3065 1.32489 17.812 0.666347 18.0684C0.261731 18.2258 0.0152988 18.5313 0.0136337 18.9701C0.0061408 21.0822 -0.0180051 23.1944 0.0244546 25.3049C0.0535936 26.7635 1.32655 27.9624 2.79433 27.9915C3.81336 28.0106 4.83322 27.9915 5.85226 27.9915L5.85309 27.9981Z" fill="white"/>
<path d="M32.1304 0.00397873C31.1213 0.00397873 30.1121 0.00397873 29.103 0.00397873C28.4477 0.00397873 27.9939 0.425225 28.0006 1.01547C28.0072 1.60571 28.4535 2.00198 29.0955 2.00198C31.0383 2.00198 32.9836 2.00198 34.9314 2.00198C35.6666 2.00198 35.9938 2.32998 35.9938 3.06841C35.9938 5.02395 35.9938 6.98115 35.9938 8.93586C35.9938 9.69843 36.6749 10.1946 37.3476 9.92653C37.7406 9.77086 37.9821 9.46699 37.9838 9.04492C37.9938 6.92288 38.0212 4.79917 37.9721 2.6788C37.9388 1.2161 36.6616 0.033947 35.187 0.00813961C34.1678 -0.0101748 33.1479 0.00813961 32.1287 0.00813961L32.1304 0.00397873Z" fill="white"/>
<rect x="8.00049" y="6" width="1.5" height="16" rx="0.75" fill="white"/>
<rect x="18.0005" y="6" width="1.5" height="16" rx="0.75" fill="white"/>
<rect x="28.0005" y="6" width="1.5" height="16" rx="0.75" fill="white"/>
<rect x="23.0005" y="6" width="1.5" height="16" rx="0.75" fill="white"/>
<rect x="13.0005" y="6" width="1.5" height="16" rx="0.75" fill="white"/>
</svg>
